<svg width="64" height="64" viewBox="0 0 64 64" fill="none" xmlns="http://www.w3.org/2000/svg">
<g clip-path="url(#clip0_1_62)">
<path d="M51.5381 50.7289L41.8736 40.5975M41.8736 40.5975L38.846 49.014L28.0658 26.1269L50.4222 37.9673L41.8736 40.5975ZM23.9403 49.5878C20.4687 48.5697 17.3016 46.7112 14.7198 44.1768C12.1379 41.6424 10.221 38.5103 9.13869 35.0581C8.05641 31.6059 7.84221 27.9401 8.51507 24.3853C9.18793 20.8305 10.7271 17.4965 12.9962 14.6787C15.2653 11.8608 18.1943 9.64607 21.5238 8.23058C24.8533 6.81509 28.4805 6.24257 32.0841 6.56372C35.6877 6.88486 39.1565 8.08978 42.1832 10.0717C45.21 12.0537 47.7012 14.7515 49.4362 17.9262M26.1931 41.9109C23.9836 41.2633 21.9679 40.0807 20.3247 38.468C18.6814 36.8553 17.4612 34.8622 16.7723 32.6653C16.0833 30.4683 15.9468 28.1354 16.3749 25.8731C16.803 23.6108 17.7824 21.489 19.2264 19.6957C20.6704 17.9024 22.5344 16.4929 24.6533 15.592C26.7722 14.6912 29.0806 14.3269 31.3739 14.5313C33.6673 14.7358 35.8748 15.5027 37.8009 16.7641C39.727 18.0255 41.3123 19.7425 42.4164 21.763" stroke="#F6F8FF" stroke-width="3.5" stroke-linecap="round" stroke-linejoin="round"/>
</g>
<defs>
<clipPath id="clip0_1_62">
<rect width="64" height="64" fill="white"/>
</clipPath>
</defs>
</svg>
