<svg xmlns="http://www.w3.org/2000/svg" xmlns:xlink="http://www.w3.org/1999/xlink" viewBox="0 0 568.98 414.98"><defs><style>.cls-1{fill:#212121;}.cls-2{fill:url(#linear-gradient);}.cls-3{fill:url(#linear-gradient-2);}.cls-4{fill:url(#linear-gradient-3);}.cls-5{fill:url(#linear-gradient-4);}.cls-6{fill:url(#linear-gradient-5);}.cls-7{fill:url(#linear-gradient-6);}.cls-8{fill:url(#linear-gradient-7);}.cls-9{fill:url(#linear-gradient-8);}.cls-10{fill:url(#linear-gradient-9);}.cls-11{fill:url(#linear-gradient-10);}.cls-12{fill:url(#linear-gradient-11);}.cls-13{fill:url(#linear-gradient-12);}.cls-14{fill:url(#linear-gradient-13);}.cls-15{fill:url(#linear-gradient-14);}.cls-16{fill:url(#linear-gradient-15);}.cls-17{fill:url(#linear-gradient-16);}.cls-18{fill:url(#linear-gradient-17);}</style><linearGradient id="linear-gradient" x1="25.07" y1="207.49" x2="543.91" y2="207.49" gradientUnits="userSpaceOnUse"><stop offset="0" stop-color="#e32f00"/><stop offset="0.32" stop-color="#9b2300"/><stop offset="0.72" stop-color="#e32f00"/><stop offset="1" stop-color="#4c2717"/></linearGradient><linearGradient id="linear-gradient-2" x1="363.5" y1="257.71" x2="392.24" y2="257.71" xlink:href="#linear-gradient"/><linearGradient id="linear-gradient-3" x1="336.29" y1="188.7" x2="394.93" y2="188.7" xlink:href="#linear-gradient"/><linearGradient id="linear-gradient-4" x1="292.27" y1="135.23" x2="373.88" y2="135.23" xlink:href="#linear-gradient"/><linearGradient id="linear-gradient-5" x1="242.67" y1="110.51" x2="301.25" y2="110.51" xlink:href="#linear-gradient"/><linearGradient id="linear-gradient-6" x1="224.89" y1="134.02" x2="283.48" y2="134.02" xlink:href="#linear-gradient"/><linearGradient id="linear-gradient-7" x1="256.88" y1="167.88" x2="327.67" y2="167.88" xlink:href="#linear-gradient"/><linearGradient id="linear-gradient-8" x1="288.8" y1="214.75" x2="355.91" y2="214.75" xlink:href="#linear-gradient"/><linearGradient id="linear-gradient-9" x1="320.71" y1="267.06" x2="361.13" y2="267.06" xlink:href="#linear-gradient"/><linearGradient id="linear-gradient-10" x1="267.73" y1="304.69" x2="326.31" y2="304.69" xlink:href="#linear-gradient"/><linearGradient id="linear-gradient-11" x1="285.5" y1="281.18" x2="344.09" y2="281.18" xlink:href="#linear-gradient"/><linearGradient id="linear-gradient-12" x1="241.31" y1="247.32" x2="312.09" y2="247.32" xlink:href="#linear-gradient"/><linearGradient id="linear-gradient-13" x1="213.06" y1="200.45" x2="280.18" y2="200.45" xlink:href="#linear-gradient"/><linearGradient id="linear-gradient-14" x1="207.85" y1="148.14" x2="248.26" y2="148.14" xlink:href="#linear-gradient"/><linearGradient id="linear-gradient-15" x1="176.74" y1="157.49" x2="205.47" y2="157.49" xlink:href="#linear-gradient"/><linearGradient id="linear-gradient-16" x1="174.05" y1="226.5" x2="232.69" y2="226.5" xlink:href="#linear-gradient"/><linearGradient id="linear-gradient-17" x1="195.09" y1="279.97" x2="276.71" y2="279.97" xlink:href="#linear-gradient"/></defs><g id="Layer_2" data-name="Layer 2"><g id="Badges"><g id="_18" data-name="18"><path class="cls-1" d="M510.53,134.93h0C466.72,91.8,402.93,57.22,330.92,37.56c-40-10.93-81-16.71-119.58-16.94a52.07,52.07,0,0,0-89.23,10.72c-63.22,16.91-105,52.2-118,99.7-13.28,48.65,6,101.65,54.36,149.23,43.81,43.13,107.6,77.71,179.61,97.37a466.22,466.22,0,0,0,112.36,16.85A52.06,52.06,0,0,0,438.47,386c1.27-.29,2.52-.6,3.77-.91,27.06-6.75,50.51-16.81,69.7-29.92,27-18.44,45.3-43,52.95-71C578.17,235.51,558.87,182.51,510.53,134.93Z"/><g id="_05" data-name="05"><path class="cls-2" d="M493,152.78c-40.81-40.17-100.71-72.51-168.66-91.07-43.83-12-87.68-17.28-128.21-15.83a27,27,0,0,0-51.75-2.74,26.67,26.67,0,0,0-1.5,9q-5.09,1.07-10.06,2.3C76.16,68.55,39,98.1,28.24,137.63S34.41,221.48,76,262.43c40.82,40.17,100.71,72.51,168.66,91.06,41.23,11.26,82.48,16.62,121,16a27,27,0,0,0,53.12-5c5.93-1.08,11.75-2.31,17.43-3.73,24.33-6.07,45.06-15,61.65-26.31,22-15,36.76-34.34,42.91-56.89C551.54,238,534.57,193.72,493,152.78Zm37.6,122c-11.19,40.95-54.28,68.7-113.25,79.36a27,27,0,0,0-51-.16,26.23,26.23,0,0,0-1.22,5c-36.65.5-76.76-4.5-117.67-15.67C111.74,306.27,18,215.24,38.4,140.41,44,119.88,57.64,102.66,77.27,89.26c18-12.3,41.08-21.39,67.64-26.89a26.94,26.94,0,0,0,51.57-6C235.1,55.07,277.87,60,321.55,71.88,457.24,108.93,551,200,530.58,274.79Z"/><path class="cls-3" d="M363.5,235.46c3.67,14.53,4.71,28.11,3,39.42a57.56,57.56,0,0,1-2,8.87l.22-.23.44-.46.46-.5c.15-.15.29-.31.43-.46l.46-.51c.14-.15.28-.3.41-.46l.47-.51.39-.46.47-.53.37-.44.48-.56c.11-.13.21-.26.32-.38.64-.78,1.28-1.56,1.9-2.35l.23-.29c.17-.21.33-.42.49-.64l.31-.39.46-.61.33-.43.44-.61.33-.45.43-.6.33-.46.42-.6.33-.47.41-.6.32-.47.41-.61.32-.48.39-.61.32-.49.38-.61c.11-.16.21-.33.31-.49s.26-.41.38-.62l.3-.49c.13-.21.25-.42.38-.62l.29-.5c.13-.21.25-.42.37-.63l.29-.5.36-.63.28-.51c.12-.21.24-.42.35-.63s.19-.34.28-.51l.35-.64.27-.51.33-.65.27-.51.33-.65c.09-.17.17-.34.25-.51l.33-.66.25-.51c.1-.23.21-.45.32-.68s.16-.33.23-.5.22-.45.32-.68.15-.33.23-.49.21-.47.31-.71l.21-.46c.1-.25.21-.49.32-.74l.15-.36c.39-.92.78-1.85,1.15-2.79l.18-.46c.09-.23.18-.46.26-.69l.21-.54.24-.67.22-.57c.07-.22.15-.44.23-.66l.21-.59.22-.64.21-.61.21-.64c.06-.21.13-.41.2-.62s.13-.43.2-.64.13-.42.2-.63.13-.42.19-.63.13-.43.19-.64.12-.42.19-.63l.18-.65.18-.63.18-.66c.05-.2.11-.41.16-.62l.18-.67.15-.62c.06-.23.12-.45.17-.68l.15-.62c.06-.23.11-.45.16-.68s.1-.41.14-.62a2.86,2.86,0,0,1,.07-.28A99.63,99.63,0,0,0,363.5,235.46Z"/><path class="cls-4" d="M336.29,176c11.54,17.4,20.33,35.78,25.57,53.5a105,105,0,0,1,31.57-3.93,109.59,109.59,0,0,0-16.05-77.63Z"/><path class="cls-5" d="M332.79,170.86l41.09-28.06a109.56,109.56,0,0,0-66.46-43.2,104.68,104.68,0,0,1-15.15,28C306.87,138.91,320.79,153.78,332.79,170.86Z"/><path class="cls-6" d="M287.3,123.87a99.82,99.82,0,0,0,13.95-25.4l-.28,0-.63-.1-.69-.1-.64-.08-.69-.09-.64-.08L297,97.9l-.65-.08-.67-.07-.65-.06-.67-.07-.66-.06-.66,0-.67-.05-.64,0-.68,0-.64,0-.68,0-.63,0-.7,0-.61,0-.71,0-.59,0H284c-1,0-2.09,0-3.13.06h-.32l-.83,0-.48,0-.79,0-.52,0-.77,0-.53,0-.76.06-.55,0-.75.06-.55,0-.74.08-.56,0-.74.08-.56.07-.74.09-.56.07-.73.1-.56.08-.73.1-.56.09-.73.11-.56.1-.73.12-.56.1-.72.13-.56.11-.72.14-.56.11-.72.15-.55.12-.72.15-.55.13-.72.17-.55.13-.72.17-.54.14-.73.19-.52.14-.74.2-.5.13-.76.22-.45.13-.8.24-.31.09c-1,.3-2,.61-2.95.94l-.44.15-.71.25-.53.18-.68.24-.55.2-.66.25-.57.21-.65.25-.58.23-.63.25-.59.24-.3.12a56.76,56.76,0,0,1,9,1.34C262.83,109.25,275.1,115.16,287.3,123.87Z"/><path class="cls-7" d="M283.48,128.76c-22.88-16.28-44.37-21.37-58.59-13.94l28.5,41.74A156.25,156.25,0,0,0,283.48,128.76Z"/><path class="cls-8" d="M327.67,174.36c-11.64-16.56-25.11-31-39.21-41.89a162.14,162.14,0,0,1-31.58,29.21l28.42,41.61Z"/><path class="cls-9" d="M355.91,231.24c-5.06-17.11-13.56-34.89-24.74-51.76L288.8,208.41,317.22,250A161.94,161.94,0,0,1,355.91,231.24Z"/><path class="cls-10" d="M320.71,255.15l28.5,41.73c12.1-10.54,15.18-32.41,8.35-59.65A155.93,155.93,0,0,0,320.71,255.15Z"/><path class="cls-11" d="M281.68,291.34a99.6,99.6,0,0,0-13.95,25.39l.3,0,.59.09.73.1.6.08.72.1.61.07.72.09.61.07.71.07.62.06.7.07.63.06.69.05.63.05.69.05.64,0,.68,0,.64,0,.68,0,.65,0,.66,0,.66,0,.65,0h3.37c.68,0,1.35,0,2,0h.51l.75,0,.56,0,.74,0,.57,0,.73-.05.58,0,.72,0,.59-.05.71-.06.59-.05.71-.07.59-.06.71-.08.59-.07.71-.08.59-.08.71-.09.58-.09.71-.1.58-.09.71-.11.58-.1c.24,0,.47-.07.71-.12l.57-.1.71-.13.58-.11.7-.13.58-.12.7-.14.57-.13.71-.15.56-.13.71-.16.56-.14.71-.17.55-.14.71-.19.55-.14.72-.19.52-.15.73-.21.49-.14.77-.22.37-.12c1-.29,1.91-.59,2.85-.91l.48-.16.69-.24.55-.19.67-.24.56-.2.65-.25.58-.21.64-.25.59-.23.63-.25.59-.24.3-.12a56.76,56.76,0,0,1-9-1.34C306.14,306,293.88,300,281.68,291.34Z"/><path class="cls-12" d="M285.5,286.44c22.88,16.28,44.37,21.37,58.59,13.94l-28.5-41.73A155.31,155.31,0,0,0,285.5,286.44Z"/><path class="cls-13" d="M280.52,282.73a162.07,162.07,0,0,1,31.57-29.21l-28.41-41.61-42.37,28.93C253,257.4,266.42,271.79,280.52,282.73Z"/><path class="cls-14" d="M213.06,184c5.07,17.11,13.57,34.89,24.75,51.76l42.37-28.93-28.42-41.61A162.15,162.15,0,0,1,213.06,184Z"/><path class="cls-15" d="M248.26,160.05l-28.49-41.73c-12.1,10.55-15.18,32.41-8.35,59.65A155.68,155.68,0,0,0,248.26,160.05Z"/><path class="cls-16" d="M205.47,179.74c-3.66-14.53-4.7-28.1-3-39.42a57.56,57.56,0,0,1,2-8.87l-.22.23c-.15.15-.29.3-.43.46l-.48.5-.41.45-.47.52-.4.44-.48.54-.38.43-.48.56c-.12.13-.24.27-.35.41s-.34.39-.5.59l-.28.33c-.68.81-1.35,1.64-2,2.48l-.16.2-.52.67-.28.36-.48.64-.3.4-.47.63-.31.42-.45.62-.31.44-.43.62-.32.45-.42.62c-.1.16-.21.31-.31.46l-.42.62-.3.47c-.14.21-.28.41-.41.62l-.3.47c-.14.21-.27.42-.4.63l-.3.48-.39.63-.29.48c-.13.21-.26.42-.38.63l-.29.49c-.13.21-.25.42-.37.64l-.29.49-.36.64c-.1.16-.19.33-.28.49l-.36.65-.27.49c-.11.22-.23.44-.35.66l-.26.49-.35.66c-.08.17-.17.33-.25.5s-.23.45-.34.67-.17.33-.25.49l-.33.68-.24.49-.33.69-.23.48c-.11.24-.22.47-.32.71s-.15.31-.22.46-.22.49-.32.73-.13.28-.19.42l-.34.78L183,164c-.41,1-.81,1.93-1.19,2.9-.06.15-.11.29-.17.43l-.27.71c-.07.18-.13.35-.2.52s-.17.46-.25.68l-.21.56c-.07.22-.15.44-.23.66l-.21.59c-.07.22-.15.43-.22.65l-.21.6-.21.65c-.07.2-.13.41-.2.61s-.13.43-.2.64-.13.42-.2.63-.13.42-.19.63-.13.43-.19.64-.13.42-.19.63l-.18.65-.18.63-.18.66c0,.21-.11.41-.16.62l-.18.67-.15.62c-.06.23-.12.46-.17.68l-.15.61c-.06.24-.11.47-.16.7s-.1.4-.14.61a2.86,2.86,0,0,1-.07.28A99.52,99.52,0,0,0,205.47,179.74Z"/><path class="cls-17" d="M207.12,185.72a104.73,104.73,0,0,1-31.57,3.93,109.54,109.54,0,0,0,16,77.63l41.09-28.06C221.15,221.82,212.36,203.44,207.12,185.72Z"/><path class="cls-18" d="M236.19,244.34l-41.1,28.06a109.56,109.56,0,0,0,66.47,43.2,104.68,104.68,0,0,1,15.15-28C262.11,276.29,248.19,261.43,236.19,244.34Z"/></g></g></g></g></svg>