<svg width="98" height="37" viewBox="0 0 98 37" fill="none" xmlns="http://www.w3.org/2000/svg">
<path d="M1 31.7105L9.28644 25.7341C10.1597 25.1042 11.3749 25.2788 12.0356 26.129L15.7043 30.8503C16.508 31.8845 18.0722 31.88 18.8699 30.8413L24.3298 23.7312C25.2556 22.5256 27.1346 22.7526 27.7467 24.1439L32.3323 34.5668C33.1037 36.3201 35.6608 36.0907 36.1078 34.2281L40.0383 17.8491C40.2541 16.9498 41.0583 16.3158 41.9831 16.3158H42.2531C43.1717 16.3158 43.9721 15.6901 44.1939 14.7988L47.2076 2.68897C47.7092 0.673249 50.5708 0.663685 51.0859 2.67601L54.7986 17.1802C55.0251 18.0652 55.8226 18.6842 56.7361 18.6842H57.9313C58.7818 18.6842 59.5393 19.2221 59.8196 20.0251L62.1455 26.6885C62.7539 28.4317 65.1978 28.4899 65.8885 26.7777L72.8548 9.51015C73.5506 7.78551 76.0177 7.86106 76.6066 9.62504L81.4814 24.2254C82.1385 26.1938 84.9885 25.9824 85.3482 23.9387L87.8575 9.67968C88.0257 8.72353 88.8564 8.02632 89.8272 8.02632H98" stroke="url(#paint0_linear_879_117)"/>
<defs>
<linearGradient id="paint0_linear_879_117" x1="-6" y1="32.5" x2="98" y2="31.5" gradientUnits="userSpaceOnUse">
<stop stop-color="#11BC60" stop-opacity="0"/>
<stop offset="0.479167" stop-color="#11BC60"/>
<stop offset="1" stop-color="#11BC60" stop-opacity="0"/>
</linearGradient>
</defs>
</svg>
