<svg xmlns="http://www.w3.org/2000/svg" xmlns:xlink="http://www.w3.org/1999/xlink" viewBox="0 0 522.17 522.17"><defs><style>.cls-1{fill:#212121;}.cls-2{fill:url(#linear-gradient);}.cls-3{fill:url(#linear-gradient-2);}</style><linearGradient id="linear-gradient" x1="-2769.72" y1="209.13" x2="-2599.33" y2="209.13" gradientTransform="matrix(-1, 0, 0, 1, -2441.49, 0)" gradientUnits="userSpaceOnUse"><stop offset="0" stop-color="#e32f00"/><stop offset="0.32" stop-color="#9b2300"/><stop offset="0.72" stop-color="#e32f00"/><stop offset="1" stop-color="#4c2717"/></linearGradient><linearGradient id="linear-gradient-2" x1="-2867.84" y1="259.9" x2="-2541.23" y2="259.9" xlink:href="#linear-gradient"/></defs><g id="Layer_2" data-name="Layer 2"><g id="Badges"><g id="_20" data-name="20"><circle class="cls-1" cx="261.08" cy="261.08" r="261.08"/><g id="_37" data-name="37"><g id="_21" data-name="21"><path class="cls-2" d="M157.84,209.13A85.2,85.2,0,1,0,243,123.94,85.3,85.3,0,0,0,157.84,209.13Zm61.63,30a228.29,228.29,0,0,0,47.14,0c-4.18,30.2-14.28,49.5-23.57,49.5S223.65,269.35,219.47,239.15Zm-.71-5.73a231,231,0,0,1,0-48.57,230.92,230.92,0,0,1,48.56,0,231,231,0,0,1,0,48.57,232.73,232.73,0,0,1-48.56,0Zm55.52-24.29a226.93,226.93,0,0,0-1.23-23.57c30.2,4.18,49.51,14.28,49.51,23.57s-19.31,19.39-49.51,23.58A227,227,0,0,0,274.28,209.13Zm-7.67-30a228.29,228.29,0,0,0-47.14,0c4.18-30.2,14.28-49.5,23.57-49.5S262.43,148.92,266.61,179.12Zm-54.81,30A227,227,0,0,0,213,232.71c-30.21-4.19-49.51-14.28-49.51-23.58s19.3-19.39,49.51-23.57A226.93,226.93,0,0,0,211.8,209.13Zm18.77-78.53c-8.25,9.47-14,28.06-16.86,49.21-21.15,2.8-39.73,8.61-49.2,16.86A79.7,79.7,0,0,1,230.57,130.6Zm91,66.07c-9.47-8.25-28.06-14.06-49.21-16.86-2.8-21.15-8.6-39.74-16.85-49.21A79.7,79.7,0,0,1,321.57,196.67Zm-66.06,91c8.25-9.48,14.05-28.06,16.85-49.21,21.15-2.8,39.74-8.61,49.21-16.86A79.7,79.7,0,0,1,255.51,287.67Zm-91-66.07c9.47,8.25,28.05,14.06,49.2,16.86,2.81,21.15,8.61,39.73,16.86,49.21A79.7,79.7,0,0,1,164.51,221.6Z"/></g><path class="cls-3" d="M132.58,447.41l-4.91,9h188.6c6.17-18.29,15.46-47.66,18.18-66.83,33.12,11.23,95.16.25,65.65-52.82,6.31-4.83,10.45-11.12,5.71-20.15,10.43-11.33,7.83-19.38.71-28.71,44.36-16.71,2.81-45.46-13.83-65.19-5.06-5.85-4.65-8.94-3.83-15.11,3-14.28-16.76-65.71-24.8-76.88C246.86-32,14.86,130,131.78,298.73c17.91,25.85,30.06,38,32.61,67.13C166.64,392.18,146.1,422.36,132.58,447.41ZM242.11,342.64c-175.81-3-175.78-264.52,0-267.5C417.93,78.14,417.9,339.67,242.11,342.64Z"/></g></g></g></g></svg>