<svg width="24" height="24" viewBox="0 0 24 24" fill="none" xmlns="http://www.w3.org/2000/svg">
<path fill-rule="evenodd" clip-rule="evenodd" d="M5.10002 6.60005C4.86133 6.60005 4.63241 6.69487 4.46363 6.86365C4.29485 7.03244 4.20002 7.26135 4.20002 7.50005V17.7001C4.20002 18.1969 4.60322 18.6001 5.10002 18.6001H15.3C15.5387 18.6001 15.7676 18.5052 15.9364 18.3364C16.1052 18.1677 16.2 17.9387 16.2 17.7001V12.9001C16.2 12.6614 16.2948 12.4324 16.4636 12.2637C16.6324 12.0949 16.8613 12 17.1 12C17.3387 12 17.5676 12.0949 17.7364 12.2637C17.9052 12.4324 18 12.6614 18 12.9001V17.7001C18 18.4161 17.7156 19.1029 17.2092 19.6092C16.7029 20.1156 16.0161 20.4001 15.3 20.4001H5.10002C4.38394 20.4001 3.69718 20.1156 3.19084 19.6092C2.68449 19.1029 2.40002 18.4161 2.40002 17.7001V7.50005C2.40002 6.78396 2.68449 6.09721 3.19084 5.59086C3.69718 5.08451 4.38394 4.80005 5.10002 4.80005H11.1C11.3387 4.80005 11.5676 4.89487 11.7364 5.06365C11.9052 5.23244 12 5.46135 12 5.70005C12 5.93874 11.9052 6.16766 11.7364 6.33645C11.5676 6.50523 11.3387 6.60005 11.1 6.60005H5.10002Z" fill="black"/>
<path fill-rule="evenodd" clip-rule="evenodd" d="M7.43282 15.3036C7.51213 15.3914 7.60795 15.4627 7.71482 15.5134C7.82169 15.5641 7.9375 15.5932 8.05564 15.5991C8.17378 15.605 8.29192 15.5876 8.40331 15.5478C8.51471 15.508 8.61716 15.4466 8.70483 15.3672L19.8 5.32802V8.70002C19.8 8.93872 19.8948 9.16764 20.0636 9.33642C20.2324 9.5052 20.4613 9.60002 20.7 9.60002C20.9387 9.60002 21.1676 9.5052 21.3364 9.33642C21.5052 9.16764 21.6 8.93872 21.6 8.70002V3.30002C21.6 3.06133 21.5052 2.83241 21.3364 2.66363C21.1676 2.49485 20.9387 2.40002 20.7 2.40002H15.3C15.0613 2.40002 14.8324 2.49485 14.6636 2.66363C14.4948 2.83241 14.4 3.06133 14.4 3.30002C14.4 3.53872 14.4948 3.76764 14.6636 3.93642C14.8324 4.1052 15.0613 4.20002 15.3 4.20002H18.3636L7.49643 14.0328C7.40866 14.1121 7.33739 14.208 7.28669 14.3148C7.23599 14.4217 7.20686 14.5375 7.20095 14.6556C7.19505 14.7738 7.21248 14.8919 7.25227 15.0033C7.29206 15.1147 7.35341 15.216 7.43282 15.3036Z" fill="black"/>
</svg>
