<svg width="32" height="26" viewBox="0 0 32 26" fill="none" xmlns="http://www.w3.org/2000/svg">
<path d="M29.4616 7.62054V8.44879V8.95845V20.3077V20.3141V20.3237L29.4612 20.3332L29.4609 20.3396L29.4609 20.3416L29.4516 20.5616L29.4515 20.566L29.4514 20.5659L29.4511 20.572L29.4508 20.5793L29.4502 20.5865L29.4497 20.5927L29.4496 20.5937C29.3778 21.4695 28.9792 22.2862 28.333 22.8816C27.6868 23.4771 26.8403 23.8076 25.9616 23.8077H25.9616H5.19231H5.1859H5.17637L5.16684 23.8073L5.16044 23.8071L5.15868 23.807L4.9385 23.7978L4.93714 23.7978L4.93223 23.7976L4.91989 23.7971L4.9076 23.796L4.90434 23.7957C4.02891 23.7235 3.21268 23.3247 2.61767 22.6785L2.98547 22.3398L2.61766 22.6785C2.02265 22.0324 1.69234 21.1861 1.69231 20.3077V8.95999V8.45033V7.62207L2.42522 8.00789L2.87618 8.24528L2.87622 8.2453L15.3904 14.8317L15.4785 14.8703C15.5182 14.882 15.5597 14.8865 15.601 14.8835L29.4616 7.62054ZM29.4616 7.62054L28.7287 8.00634M29.4616 7.62054L28.7287 8.00634M28.7287 8.00634L28.2776 8.24376L15.7392 14.8438L15.7385 14.8441M28.7287 8.00634L15.7385 14.8441M15.7385 14.8441C15.6958 14.8667 15.6488 14.8801 15.601 14.8835L15.7385 14.8441ZM1 5.69231V5.69228C0.99993 4.62145 1.40963 3.59116 2.14504 2.81281C2.87786 2.03721 3.87873 1.57034 4.9436 1.50706L5.20328 1.5H25.9616H25.9616C27.0325 1.49993 28.0627 1.90962 28.8411 2.64505C29.6166 3.37785 30.0835 4.37873 30.1468 5.44361L30.1539 5.70327V20.3077C30.1539 21.3786 29.7443 22.4088 29.0088 23.1872C28.276 23.9628 27.2751 24.4297 26.2102 24.493L25.9506 24.5H5.19231H5.19226C4.12143 24.5001 3.09117 24.0904 2.31281 23.355L1.96942 23.7184L2.31281 23.355C1.53721 22.6222 1.07034 21.6213 1.00706 20.5564L1 20.2967V5.69231ZM25.9954 2.19302L25.9954 2.19302L25.989 2.19275L25.9785 2.19231H25.968H25.9616H5.19231H5.19229C4.31391 2.19234 3.46764 2.52265 2.8215 3.11767L2.8215 3.11767C2.17537 3.71267 1.77658 4.52885 1.70429 5.40422C1.70429 5.40425 1.70428 5.40428 1.70428 5.40431L1.70377 5.41047L1.70294 5.42051L1.70252 5.43058L1.70225 5.43684L1.70224 5.43715L1.69301 5.65868L1.693 5.65886L1.69273 5.66526L1.69231 5.67558V5.6859V5.69231V6.35229V6.53808V6.83995L1.95944 6.98054L2.12384 7.06706L2.12386 7.06708L15.2008 13.9486L15.2008 13.9486L15.3441 14.024L15.5769 14.1465L15.8097 14.0241L15.953 13.9487L15.9531 13.9486L29.0301 7.06552L29.0301 7.06551L29.1945 6.97898L29.4616 6.83839V6.53654V6.35076V5.69231V5.69227C29.4615 4.81354 29.1309 3.96702 28.5355 3.32084L28.5355 3.32081C27.94 2.67463 27.1233 2.27604 26.2476 2.20424L26.2471 2.2042L26.241 2.2037L26.2314 2.20293L26.2218 2.20252L26.2157 2.20226L26.2154 2.20225L25.9954 2.19302Z" fill="#F6F8FF" stroke="#3C3C3B"/>
<path d="M0.5 5.69231C0.499922 4.49377 0.95848 3.34061 1.78161 2.46942C2.60372 1.59932 3.72724 1.07636 4.9222 1.00745L5.19649 1H25.9616C27.1601 0.99992 28.3132 1.45848 29.1845 2.28161C30.0545 3.10371 30.5775 4.22723 30.6464 5.42219L30.6539 5.69652V20.3077C30.6539 21.5063 30.1954 22.6594 29.3723 23.5306C28.5502 24.4007 27.4267 24.9237 26.2316 24.9926L25.9574 25H5.19231C3.99375 25.0001 2.84061 24.5415 1.96942 23.7184C1.09932 22.8963 0.576355 21.7728 0.507454 20.5778L0.5 20.3035V5.69231ZM28.9616 8.95845V8.44879L28.5105 8.6862L15.9721 15.2862C15.8682 15.3411 15.7537 15.3739 15.6366 15.3823C15.5228 15.3904 15.4084 15.3754 15.3006 15.3381L15.1735 15.2826L2.64331 8.68774L2.19231 8.45033V8.95999V20.3077C2.19234 21.0606 2.47546 21.786 2.98547 22.3398C3.49549 22.8937 4.19511 23.2355 4.94546 23.2974L4.9517 23.298L4.95797 23.2982L5.1795 23.3074L5.1859 23.3077H5.19231H25.9616C26.7147 23.3076 27.4403 23.0243 27.9942 22.5139C28.5481 22.0036 28.8897 21.3035 28.9513 20.5529L28.9518 20.5467L28.9521 20.5406L28.9613 20.3206L28.9616 20.3141V20.3077V8.95845ZM25.9745 2.69258L25.968 2.69231H25.9616H5.19231C4.43941 2.69233 3.71404 2.97546 3.1602 3.48547C2.60636 3.99549 2.26454 4.69511 2.20259 5.44546L2.20207 5.4517L2.2018 5.45796L2.19257 5.6795L2.19231 5.6859V5.69231V6.35229V6.53808L2.35671 6.6246L15.4337 13.5061L15.5769 13.5815L15.7203 13.5061L28.7972 6.62306L28.9616 6.53654V6.35076V5.69231C28.9615 4.93912 28.6781 4.21352 28.1678 3.65964C27.6574 3.10576 26.9574 2.76411 26.2067 2.70257L26.2006 2.70207L26.1945 2.70181L25.9745 2.69258Z" fill="#F6F8FF"/>
<path d="M2.98547 22.3398C2.47546 21.786 2.19234 21.0606 2.19231 20.3077V8.95999V8.45033L2.64331 8.68774L15.1735 15.2826L15.3006 15.3381C15.4084 15.3754 15.5228 15.3904 15.6366 15.3823C15.7537 15.3739 15.8682 15.3411 15.9721 15.2862L28.5105 8.6862L28.9616 8.44879V8.95845V20.3077V20.3142L28.9613 20.3206L28.9521 20.5406L28.9518 20.5467L28.9513 20.5529C28.8897 21.3035 28.5481 22.0036 27.9942 22.5139C27.4403 23.0243 26.7147 23.3076 25.9616 23.3077H5.19231H5.1859L5.1795 23.3074L4.95797 23.2982L4.9517 23.298L4.94545 23.2974C4.19511 23.2355 3.49549 22.8937 2.98547 22.3398ZM2.98547 22.3398L3.21182 22.1314M28.1678 3.65964C28.6781 4.21352 28.9615 4.93912 28.9616 5.69231V6.35076V6.53654L28.7972 6.62306L15.7203 13.5061L15.5769 13.5815L15.4337 13.5061L2.35671 6.6246L2.19231 6.53808V6.35229V5.69231V5.68591L2.19257 5.6795L2.2018 5.45796L2.20207 5.4517L2.20259 5.44546C2.26454 4.69511 2.60636 3.99549 3.1602 3.48547C3.71404 2.97546 4.43941 2.69233 5.19231 2.69231H25.9616H25.968L25.9745 2.69258L26.1945 2.70181L26.2006 2.70207L26.2067 2.70257C26.9574 2.76411 27.6574 3.10576 28.1678 3.65964ZM28.1678 3.65964L27.9415 3.86814M0.5 5.69231C0.499922 4.49377 0.95848 3.34061 1.78161 2.46942C2.60372 1.59932 3.72724 1.07636 4.9222 1.00745L5.19649 1H25.9616C27.1601 0.99992 28.3132 1.45848 29.1844 2.28161C30.0545 3.10371 30.5775 4.22723 30.6464 5.42219L30.6539 5.69652V20.3077C30.6539 21.5063 30.1954 22.6594 29.3723 23.5306C28.5502 24.4007 27.4267 24.9237 26.2316 24.9926L25.9574 25H5.19231C3.99375 25.0001 2.84061 24.5415 1.96942 23.7184C1.09932 22.8963 0.576355 21.7728 0.507454 20.5778L0.5 20.3035V5.69231Z" stroke="#3C3C3B"/>
</svg>
