<svg width="21" height="22" viewBox="0 0 21 22" fill="none" xmlns="http://www.w3.org/2000/svg">
<path fill-rule="evenodd" clip-rule="evenodd" d="M0 3.5C0 2.70435 0.316071 1.94129 0.87868 1.37868C1.44129 0.816071 2.20435 0.5 3 0.5H4.372C5.232 0.5 5.982 1.086 6.191 1.92L7.296 6.343C7.38554 6.701 7.36746 7.07746 7.24401 7.42522C7.12055 7.77299 6.89723 8.07659 6.602 8.298L5.309 9.268C5.174 9.369 5.145 9.517 5.183 9.62C5.74738 11.1549 6.6386 12.5487 7.79495 13.7051C8.9513 14.8614 10.3451 15.7526 11.88 16.317C11.983 16.355 12.13 16.326 12.232 16.191L13.202 14.898C13.4234 14.6028 13.727 14.3794 14.0748 14.256C14.4225 14.1325 14.799 14.1145 15.157 14.204L19.58 15.309C20.414 15.518 21 16.268 21 17.129V18.5C21 19.2956 20.6839 20.0587 20.1213 20.6213C19.5587 21.1839 18.7956 21.5 18 21.5H15.75C7.052 21.5 0 14.448 0 5.75V3.5Z" fill="#F6F8FF"/>
</svg>
