<svg width="24" height="24" viewBox="0 0 24 24" fill="none" xmlns="http://www.w3.org/2000/svg">
<path d="M11.0281 13.4599L12 11.2725C12.1581 10.8774 12.4147 10.2263 12.7155 9.92544L18.154 4.4881C18.4666 4.17542 18.8907 3.99976 19.3328 3.99976C19.775 3.99976 20.199 4.17542 20.5117 4.4881C20.8244 4.80077 21 5.22486 21 5.66705C21 6.10924 20.8244 6.53333 20.5117 6.84601L15.0732 12.2833C14.7722 12.5844 13.8953 12.9327 13.5 13.0907L11.539 13.9716C11.4676 14.0002 11.3893 14.0072 11.314 13.9917C11.2386 13.9763 11.1695 13.939 11.1151 13.8847C11.0607 13.8303 11.0235 13.7611 11.008 13.6857C10.9926 13.6104 10.9996 13.5314 11.0281 13.4599Z" fill="black"/>
<path d="M5.88929 8.09756C5.88929 7.41267 6.44514 6.85682 7.13003 6.85682H12.3412C12.5386 6.85682 12.728 6.77838 12.8676 6.63877C13.0072 6.49916 13.0856 6.30981 13.0856 6.11237C13.0856 5.91493 13.0072 5.72557 12.8676 5.58596C12.728 5.44635 12.5386 5.36792 12.3412 5.36792H7.13003C6.40609 5.36792 5.71179 5.65551 5.19988 6.16741C4.68798 6.67932 4.40039 7.37362 4.40039 8.09756V17.5272C4.40039 18.2512 4.68798 18.9455 5.19988 19.4574C5.71179 19.9693 6.40609 20.2569 7.13003 20.2569H16.5597C17.2837 20.2569 17.978 19.9693 18.4899 19.4574C19.0018 18.9455 19.2894 18.2512 19.2894 17.5272V12.3161C19.2894 12.1187 19.2109 11.9293 19.0713 11.7897C18.9317 11.6501 18.7423 11.5717 18.5449 11.5717C18.3475 11.5717 18.1581 11.6501 18.0185 11.7897C17.8789 11.9293 17.8005 12.1187 17.8005 12.3161V17.5272C17.8005 18.2121 17.2446 18.768 16.5597 18.768H7.13003C6.44514 18.768 5.88929 18.2121 5.88929 17.5272V8.09756Z" fill="black"/>
</svg>
