<svg width="25" height="24" viewBox="0 0 25 24" fill="none" xmlns="http://www.w3.org/2000/svg">
<g clip-path="url(#clip0_9_708)">
<path d="M0.5 24L2.19627 17.8403C1.14756 16.0323 0.597421 13.9848 0.603152 11.8916C0.603152 5.3327 5.96704 0 12.5516 0C15.7493 0 18.7521 1.23764 21.0043 3.48479C23.2622 5.73194 24.5057 8.72053 24.5 11.8973C24.5 18.4563 19.1361 23.789 12.5458 23.789H12.5401C10.5401 23.789 8.57449 23.2871 6.82664 22.3403L0.5 24ZM7.13037 20.1901L7.4914 20.4068C9.01575 21.308 10.7636 21.7814 12.5458 21.7871H12.5516C18.0243 21.7871 22.4828 17.3555 22.4828 11.903C22.4828 9.26236 21.4513 6.78137 19.5773 4.91065C17.7034 3.03992 15.2049 2.01331 12.5516 2.01331C7.07879 2.0076 2.62034 6.43916 2.62034 11.8916C2.62034 13.7567 3.14183 15.576 4.13897 17.1502L4.37392 17.5266L3.37106 21.1711L7.13037 20.1901Z" fill="white"/>
<path d="M0.918213 23.5837L2.55718 17.635C1.54285 15.8955 1.0099 13.9164 1.0099 11.8974C1.01563 5.56657 6.19042 0.416382 12.5514 0.416382C15.6403 0.416382 18.5342 1.6141 20.7119 3.7814C22.8895 5.9487 24.0873 8.83463 24.0873 11.9031C24.0873 18.2339 18.9067 23.3841 12.5514 23.3841H12.5457C10.6145 23.3841 8.71763 22.8993 7.03282 21.9867L0.918213 23.5837Z" fill="url(#paint0_linear_9_708)"/>
<path d="M0.5 24L2.19627 17.8403C1.14756 16.0323 0.597421 13.9848 0.603152 11.8916C0.603152 5.3327 5.96704 0 12.5516 0C15.7493 0 18.7521 1.23764 21.0043 3.48479C23.2622 5.73194 24.5057 8.72053 24.5 11.8973C24.5 18.4563 19.1361 23.789 12.5458 23.789H12.5401C10.5401 23.789 8.57449 23.2871 6.82664 22.3403L0.5 24ZM7.13037 20.1901L7.4914 20.4068C9.01575 21.308 10.7636 21.7814 12.5458 21.7871H12.5516C18.0243 21.7871 22.4828 17.3555 22.4828 11.903C22.4828 9.26236 21.4513 6.78137 19.5773 4.91065C17.7034 3.03992 15.2049 2.01331 12.5516 2.01331C7.07879 2.0076 2.62034 6.43916 2.62034 11.8916C2.62034 13.7567 3.14183 15.576 4.13897 17.1502L4.37392 17.5266L3.37106 21.1711L7.13037 20.1901Z" fill="url(#paint1_linear_9_708)"/>
<path fill-rule="evenodd" clip-rule="evenodd" d="M9.56576 6.9183C9.34226 6.42211 9.10731 6.4107 8.89527 6.405C8.72335 6.39929 8.52278 6.39929 8.32221 6.39929C8.12163 6.39929 7.80072 6.47344 7.52565 6.77001C7.25057 7.06659 6.48267 7.78522 6.48267 9.251C6.48267 10.7111 7.5543 12.1255 7.7033 12.3251C7.85229 12.5248 9.77206 15.6217 12.8036 16.8137C15.3251 17.8061 15.8408 17.6065 16.3852 17.5552C16.9297 17.5039 18.1503 16.8366 18.4024 16.1407C18.6488 15.4449 18.6488 14.8518 18.5743 14.7263C18.4998 14.6008 18.2993 14.5267 18.0013 14.3784C17.7033 14.2301 16.2362 13.5115 15.9612 13.4088C15.6861 13.3118 15.4855 13.2605 15.2907 13.5571C15.0901 13.8537 14.517 14.521 14.3451 14.7206C14.1732 14.9202 13.9956 14.943 13.6976 14.7947C13.3996 14.6464 12.4368 14.3328 11.2964 13.3175C10.4082 12.5305 9.80645 11.5552 9.63453 11.2586C9.46261 10.962 9.61733 10.8023 9.76633 10.654C9.89814 10.5229 10.0643 10.3061 10.2133 10.135C10.3623 9.96393 10.4139 9.83846 10.5113 9.63884C10.6087 9.43922 10.5629 9.26811 10.4884 9.11982C10.4139 8.97724 9.82937 7.50576 9.56576 6.9183Z" fill="white"/>
</g>
<defs>
<linearGradient id="paint0_linear_9_708" x1="12.5021" y1="23.5825" x2="12.5021" y2="0.415571" gradientUnits="userSpaceOnUse">
<stop stop-color="#20B038"/>
<stop offset="1" stop-color="#60D66A"/>
</linearGradient>
<linearGradient id="paint1_linear_9_708" x1="12.5023" y1="23.9977" x2="12.5023" y2="0" gradientUnits="userSpaceOnUse">
<stop stop-color="#F9F9F9"/>
<stop offset="1" stop-color="white"/>
</linearGradient>
<clipPath id="clip0_9_708">
<rect width="24" height="24" fill="white" transform="translate(0.5)"/>
</clipPath>
</defs>
</svg>
