<svg width="164" height="34" viewBox="0 0 164 34" fill="none" xmlns="http://www.w3.org/2000/svg">
<path d="M39.6406 17.1953C39.6406 19.5234 39.2656 21.7109 38.5156 23.7578C37.7812 25.8047 36.7344 27.5859 35.375 29.1016C34.0156 30.6172 32.3828 31.8125 30.4766 32.6875C28.5859 33.5625 26.4844 34 24.1719 34H7.22656V29.1953H24.1719C25.8281 29.1953 27.3125 28.8828 28.625 28.2578C29.9531 27.6328 31.0703 26.7812 31.9766 25.7031C32.8984 24.6094 33.6016 23.3359 34.0859 21.8828C34.5859 20.4141 34.8359 18.8516 34.8359 17.1953C34.8359 15.5391 34.5859 13.9844 34.0859 12.5312C33.6016 11.0781 32.8984 9.8125 31.9766 8.73438C31.0703 7.64062 29.9531 6.78125 28.625 6.15625C27.3125 5.51563 25.8281 5.19531 24.1719 5.19531H4.83594V34H0.03125V0.390625H24.1719C26.4844 0.390625 28.5859 0.835938 30.4766 1.72656C32.3828 2.60156 34.0156 3.80469 35.375 5.33594C36.7344 6.85156 37.7812 8.63281 38.5156 10.6797C39.2656 12.7109 39.6406 14.8828 39.6406 17.1953ZM80.5391 34H45.7812V0.390625H80.5391V5.19531H50.5859V29.1953H80.5391V34ZM76.4609 19.6094H52.9766V14.8047H76.4609V19.6094ZM124.016 0.390625L106.344 34H100.859L83.2109 0.390625H88.6719L103.602 28.8203L118.531 0.390625H124.016ZM163.789 34H157.508L144.359 20.4531L131.258 34H124.953L141.242 17.1953L124.953 0.390625H131.258L163.789 34ZM163.789 0.390625L149.141 15.4609L146.023 12.25L157.508 0.390625H163.789Z" fill="#F5F5F5"/>
</svg>
