<svg width="351" height="301" viewBox="0 0 351 301" fill="none" xmlns="http://www.w3.org/2000/svg">
<path d="M292.092 11.2793V13.4414H293.041L292.18 11.2793H292.092ZM295.268 16.2422H295.355V14.2031H294.459L295.268 16.2422ZM294.84 18L293.346 14.2031H292.092V18H290.908V14.2383H290.064V13.4062H290.908V9.54492H292.607L294.16 13.4414H295.355V9.54492H296.539V13.4062H297.383V14.2383H296.539V18H294.84ZM300.236 18V10.8457H300.207L297.998 12.416V11.127L300.225 9.54492H301.52V18H300.236ZM304.256 18.0645C303.828 18.0645 303.488 17.7246 303.488 17.2969C303.488 16.8691 303.828 16.5293 304.256 16.5293C304.684 16.5293 305.023 16.8691 305.023 17.2969C305.023 17.7246 304.684 18.0645 304.256 18.0645ZM310.555 18V16.3301H306.324V15.1816C307.051 13.8164 308.012 12.2988 309.916 9.54492H311.814V15.2285H312.975V16.3301H311.814V18H310.555ZM307.549 15.2168V15.2461H310.566V10.5586H310.543C309.078 12.6738 308.223 13.9922 307.549 15.2168ZM316.104 18V10.8457H316.074L313.865 12.416V11.127L316.092 9.54492H317.387V18H316.104ZM321.588 18V10.8457H321.559L319.35 12.416V11.127L321.576 9.54492H322.871V18H321.588ZM333.611 18H332.41V11.7773H332.369L329.82 17.9355H328.848L326.293 11.7773H326.252V18H325.057V9.54492H326.574L329.311 16.2188H329.357L332.088 9.54492H333.611V18Z" fill="#606977"/>
<rect x="278" y="50" width="69" height="28" rx="8" fill="#1CBF67"/>
<path d="M290.092 61.2793V63.4414H291.041L290.18 61.2793H290.092ZM293.268 66.2422H293.355V64.2031H292.459L293.268 66.2422ZM292.84 68L291.346 64.2031H290.092V68H288.908V64.2383H288.064V63.4062H288.908V59.5449H290.607L292.16 63.4414H293.355V59.5449H294.539V63.4062H295.383V64.2383H294.539V68H292.84ZM298.236 68V60.8457H298.207L295.998 62.416V61.127L298.225 59.5449H299.52V68H298.236ZM302.256 68.0645C301.828 68.0645 301.488 67.7246 301.488 67.2969C301.488 66.8691 301.828 66.5293 302.256 66.5293C302.684 66.5293 303.023 66.8691 303.023 67.2969C303.023 67.7246 302.684 68.0645 302.256 68.0645ZM308.555 68V66.3301H304.324V65.1816C305.051 63.8164 306.012 62.2988 307.916 59.5449H309.814V65.2285H310.975V66.3301H309.814V68H308.555ZM305.549 65.2168V65.2461H308.566V60.5586H308.543C307.078 62.6738 306.223 63.9922 305.549 65.2168ZM315.07 68.1582C313.043 68.1582 311.842 66.459 311.842 63.7637C311.842 61.0859 313.055 59.3867 315.07 59.3867C317.092 59.3867 318.287 61.0801 318.287 63.7578C318.287 66.4531 317.098 68.1582 315.07 68.1582ZM315.07 67.0566C316.277 67.0566 316.963 65.8086 316.963 63.7637C316.963 61.748 316.266 60.4883 315.07 60.4883C313.875 60.4883 313.172 61.7539 313.172 63.7637C313.172 65.8027 313.863 67.0566 315.07 67.0566ZM322.301 68.1582C320.795 68.1582 319.629 67.2559 319.377 65.9141H320.695C320.895 66.6055 321.539 67.0684 322.318 67.0684C323.637 67.0684 324.41 65.8496 324.41 63.7168C324.41 63.7168 324.404 63.7168 324.398 63.7168H324.393H324.387C324.047 64.5488 323.156 65.0996 322.066 65.0996C320.461 65.0996 319.26 63.9102 319.26 62.3047C319.26 60.6113 320.561 59.3809 322.348 59.3809C323.602 59.3809 324.609 60.0195 325.154 61.1562C325.5 61.8301 325.676 62.6621 325.676 63.6523C325.676 66.4824 324.422 68.1582 322.301 68.1582ZM322.348 64.0273C323.385 64.0273 324.158 63.2832 324.158 62.2871C324.158 61.2852 323.373 60.5 322.365 60.5C321.357 60.5 320.566 61.2793 320.566 62.2637C320.566 63.2773 321.322 64.0273 322.348 64.0273ZM335.525 68H334.324V61.7773H334.283L331.734 67.9355H330.762L328.207 61.7773H328.166V68H326.971V59.5449H328.488L331.225 66.2188H331.271L334.002 59.5449H335.525V68Z" fill="white"/>
<path d="M290.092 111.279V113.441H291.041L290.18 111.279H290.092ZM293.268 116.242H293.355V114.203H292.459L293.268 116.242ZM292.84 118L291.346 114.203H290.092V118H288.908V114.238H288.064V113.406H288.908V109.545H290.607L292.16 113.441H293.355V109.545H294.539V113.406H295.383V114.238H294.539V118H292.84ZM298.236 118V110.846H298.207L295.998 112.416V111.127L298.225 109.545H299.52V118H298.236ZM302.256 118.064C301.828 118.064 301.488 117.725 301.488 117.297C301.488 116.869 301.828 116.529 302.256 116.529C302.684 116.529 303.023 116.869 303.023 117.297C303.023 117.725 302.684 118.064 302.256 118.064ZM308.555 118V116.33H304.324V115.182C305.051 113.816 306.012 112.299 307.916 109.545H309.814V115.229H310.975V116.33H309.814V118H308.555ZM305.549 115.217V115.246H308.566V110.559H308.543C307.078 112.674 306.223 113.992 305.549 115.217ZM315.07 118.158C313.043 118.158 311.842 116.459 311.842 113.764C311.842 111.086 313.055 109.387 315.07 109.387C317.092 109.387 318.287 111.08 318.287 113.758C318.287 116.453 317.098 118.158 315.07 118.158ZM315.07 117.057C316.277 117.057 316.963 115.809 316.963 113.764C316.963 111.748 316.266 110.488 315.07 110.488C313.875 110.488 313.172 111.754 313.172 113.764C313.172 115.803 313.863 117.057 315.07 117.057ZM322.547 118.158C320.52 118.158 319.318 116.459 319.318 113.764C319.318 111.086 320.531 109.387 322.547 109.387C324.568 109.387 325.764 111.08 325.764 113.758C325.764 116.453 324.574 118.158 322.547 118.158ZM322.547 117.057C323.754 117.057 324.439 115.809 324.439 113.764C324.439 111.748 323.742 110.488 322.547 110.488C321.352 110.488 320.648 111.754 320.648 113.764C320.648 115.803 321.34 117.057 322.547 117.057ZM335.619 118H334.418V111.777H334.377L331.828 117.936H330.855L328.301 111.777H328.26V118H327.064V109.545H328.582L331.318 116.219H331.365L334.096 109.545H335.619V118Z" fill="#606977"/>
<path d="M290.592 161.279V163.441H291.541L290.68 161.279H290.592ZM293.768 166.242H293.855V164.203H292.959L293.768 166.242ZM293.34 168L291.846 164.203H290.592V168H289.408V164.238H288.564V163.406H289.408V159.545H291.107L292.66 163.441H293.855V159.545H295.039V163.406H295.883V164.238H295.039V168H293.34ZM298.736 168V160.846H298.707L296.498 162.416V161.127L298.725 159.545H300.02V168H298.736ZM302.756 168.064C302.328 168.064 301.988 167.725 301.988 167.297C301.988 166.869 302.328 166.529 302.756 166.529C303.184 166.529 303.523 166.869 303.523 167.297C303.523 167.725 303.184 168.064 302.756 168.064ZM306.758 164.174V163.143H307.777C308.691 163.143 309.318 162.568 309.318 161.771C309.318 160.986 308.779 160.465 307.777 160.465C306.863 160.465 306.254 160.992 306.178 161.824H304.941C305.041 160.342 306.16 159.387 307.836 159.387C309.436 159.387 310.602 160.295 310.602 161.596C310.602 162.65 309.91 163.406 308.861 163.594V163.617C310.133 163.705 310.953 164.484 310.953 165.668C310.953 167.145 309.611 168.158 307.848 168.158C306.025 168.158 304.854 167.156 304.771 165.697H306.031C306.113 166.506 306.781 167.062 307.848 167.062C308.879 167.062 309.617 166.477 309.617 165.65C309.617 164.736 308.926 164.174 307.812 164.174H306.758ZM315.02 168.158C313.514 168.158 312.348 167.256 312.096 165.914H313.414C313.613 166.605 314.258 167.068 315.037 167.068C316.355 167.068 317.129 165.85 317.129 163.717C317.129 163.717 317.123 163.717 317.117 163.717H317.111H317.105C316.766 164.549 315.875 165.1 314.785 165.1C313.18 165.1 311.979 163.91 311.979 162.305C311.979 160.611 313.279 159.381 315.066 159.381C316.32 159.381 317.328 160.02 317.873 161.156C318.219 161.83 318.395 162.662 318.395 163.652C318.395 166.482 317.141 168.158 315.02 168.158ZM315.066 164.027C316.104 164.027 316.877 163.283 316.877 162.287C316.877 161.285 316.092 160.5 315.084 160.5C314.076 160.5 313.285 161.279 313.285 162.264C313.285 163.277 314.041 164.027 315.066 164.027ZM322.648 168.158C320.621 168.158 319.42 166.459 319.42 163.764C319.42 161.086 320.633 159.387 322.648 159.387C324.67 159.387 325.865 161.08 325.865 163.758C325.865 166.453 324.676 168.158 322.648 168.158ZM322.648 167.057C323.855 167.057 324.541 165.809 324.541 163.764C324.541 161.748 323.844 160.488 322.648 160.488C321.453 160.488 320.75 161.754 320.75 163.764C320.75 165.803 321.441 167.057 322.648 167.057ZM335.721 168H334.52V161.777H334.479L331.93 167.936H330.957L328.402 161.777H328.361V168H327.166V159.545H328.684L331.42 166.219H331.467L334.197 159.545H335.721V168Z" fill="#606977"/>
<path d="M290.592 211.279V213.441H291.541L290.68 211.279H290.592ZM293.768 216.242H293.855V214.203H292.959L293.768 216.242ZM293.34 218L291.846 214.203H290.592V218H289.408V214.238H288.564V213.406H289.408V209.545H291.107L292.66 213.441H293.855V209.545H295.039V213.406H295.883V214.238H295.039V218H293.34ZM298.736 218V210.846H298.707L296.498 212.416V211.127L298.725 209.545H300.02V218H298.736ZM302.756 218.064C302.328 218.064 301.988 217.725 301.988 217.297C301.988 216.869 302.328 216.529 302.756 216.529C303.184 216.529 303.523 216.869 303.523 217.297C303.523 217.725 303.184 218.064 302.756 218.064ZM306.758 214.174V213.143H307.777C308.691 213.143 309.318 212.568 309.318 211.771C309.318 210.986 308.779 210.465 307.777 210.465C306.863 210.465 306.254 210.992 306.178 211.824H304.941C305.041 210.342 306.16 209.387 307.836 209.387C309.436 209.387 310.602 210.295 310.602 211.596C310.602 212.65 309.91 213.406 308.861 213.594V213.617C310.133 213.705 310.953 214.484 310.953 215.668C310.953 217.145 309.611 218.158 307.848 218.158C306.025 218.158 304.854 217.156 304.771 215.697H306.031C306.113 216.506 306.781 217.062 307.848 217.062C308.879 217.062 309.617 216.477 309.617 215.65C309.617 214.736 308.926 214.174 307.812 214.174H306.758ZM312.113 212.023C312.113 210.5 313.338 209.387 315.02 209.387C316.631 209.387 317.832 210.412 317.832 211.754C317.832 212.738 317.305 213.471 316.068 214.736L313.953 216.863V216.893H317.967V218H312.184V217.109L315.236 213.998C316.268 212.926 316.537 212.48 316.537 211.818C316.537 211.068 315.857 210.471 314.979 210.471C314.053 210.471 313.355 211.139 313.355 212.018V212.035H312.113V212.023ZM322.186 218.158C320.299 218.158 318.986 217.145 318.986 215.715C318.986 214.637 319.748 213.775 320.867 213.541V213.512C319.93 213.254 319.326 212.521 319.326 211.613C319.326 210.33 320.527 209.387 322.186 209.387C323.85 209.387 325.039 210.324 325.039 211.619C325.039 212.516 324.441 213.242 323.504 213.512V213.541C324.629 213.775 325.385 214.643 325.385 215.715C325.385 217.15 324.061 218.158 322.186 218.158ZM322.186 217.104C323.264 217.104 324.025 216.482 324.025 215.621C324.025 214.748 323.264 214.127 322.186 214.127C321.107 214.127 320.34 214.754 320.34 215.621C320.34 216.482 321.107 217.104 322.186 217.104ZM322.186 213.072C323.094 213.072 323.744 212.521 323.744 211.754C323.744 210.98 323.1 210.43 322.186 210.43C321.266 210.43 320.627 210.98 320.627 211.754C320.627 212.521 321.266 213.072 322.186 213.072ZM335.229 218H334.027V211.777H333.986L331.438 217.936H330.465L327.91 211.777H327.869V218H326.674V209.545H328.191L330.928 216.219H330.975L333.705 209.545H335.229V218Z" fill="#606977"/>
<path d="M290.092 261.279V263.441H291.041L290.18 261.279H290.092ZM293.268 266.242H293.355V264.203H292.459L293.268 266.242ZM292.84 268L291.346 264.203H290.092V268H288.908V264.238H288.064V263.406H288.908V259.545H290.607L292.16 263.441H293.355V259.545H294.539V263.406H295.383V264.238H294.539V268H292.84ZM298.236 268V260.846H298.207L295.998 262.416V261.127L298.225 259.545H299.52V268H298.236ZM302.256 268.064C301.828 268.064 301.488 267.725 301.488 267.297C301.488 266.869 301.828 266.529 302.256 266.529C302.684 266.529 303.023 266.869 303.023 267.297C303.023 267.725 302.684 268.064 302.256 268.064ZM306.258 264.174V263.143H307.277C308.191 263.143 308.818 262.568 308.818 261.771C308.818 260.986 308.279 260.465 307.277 260.465C306.363 260.465 305.754 260.992 305.678 261.824H304.441C304.541 260.342 305.66 259.387 307.336 259.387C308.936 259.387 310.102 260.295 310.102 261.596C310.102 262.65 309.41 263.406 308.361 263.594V263.617C309.633 263.705 310.453 264.484 310.453 265.668C310.453 267.145 309.111 268.158 307.348 268.158C305.525 268.158 304.354 267.156 304.271 265.697H305.531C305.613 266.506 306.281 267.062 307.348 267.062C308.379 267.062 309.117 266.477 309.117 265.65C309.117 264.736 308.426 264.174 307.312 264.174H306.258ZM314.766 268.158C312.738 268.158 311.537 266.459 311.537 263.764C311.537 261.086 312.75 259.387 314.766 259.387C316.787 259.387 317.982 261.08 317.982 263.758C317.982 266.453 316.793 268.158 314.766 268.158ZM314.766 267.057C315.973 267.057 316.658 265.809 316.658 263.764C316.658 261.748 315.961 260.488 314.766 260.488C313.57 260.488 312.867 261.754 312.867 263.764C312.867 265.803 313.559 267.057 314.766 267.057ZM322.242 268.158C320.215 268.158 319.014 266.459 319.014 263.764C319.014 261.086 320.227 259.387 322.242 259.387C324.264 259.387 325.459 261.08 325.459 263.758C325.459 266.453 324.27 268.158 322.242 268.158ZM322.242 267.057C323.449 267.057 324.135 265.809 324.135 263.764C324.135 261.748 323.438 260.488 322.242 260.488C321.047 260.488 320.344 261.754 320.344 263.764C320.344 265.803 321.035 267.057 322.242 267.057ZM335.314 268H334.113V261.777H334.072L331.523 267.936H330.551L327.996 261.777H327.955V268H326.76V259.545H328.277L331.014 266.219H331.061L333.791 259.545H335.314V268Z" fill="#606977"/>
<path d="M20.4043 288.645H21.6992C21.793 289.482 22.6074 290.033 23.7207 290.033C24.7871 290.033 25.5547 289.482 25.5547 288.727C25.5547 288.07 25.0918 287.678 23.9961 287.408L22.9004 287.145C21.3477 286.77 20.627 286.043 20.627 284.865C20.627 283.406 21.8984 282.404 23.7031 282.404C25.4902 282.404 26.7148 283.406 26.7559 284.865H25.4785C25.4023 284.021 24.7051 283.512 23.6855 283.512C22.666 283.512 21.9688 284.027 21.9688 284.777C21.9688 285.375 22.4141 285.727 23.5039 285.996L24.4355 286.225C26.1699 286.635 26.8906 287.332 26.8906 288.568C26.8906 290.15 25.6309 291.141 23.627 291.141C21.752 291.141 20.4863 290.174 20.4043 288.645ZM29.3809 282.545V287.918C29.3809 289.125 30.1426 289.975 31.4902 289.975C32.8379 289.975 33.6055 289.125 33.6055 287.918V282.545H34.9121V288.029C34.9121 289.852 33.6113 291.141 31.4902 291.141C29.3691 291.141 28.0684 289.852 28.0684 288.029V282.545H29.3809ZM37.748 291H36.4707V282.545H37.6602L42.043 288.779H42.0898V282.545H43.3672V291H42.1836L37.8008 284.771H37.748V291Z" fill="#606977"/>
<path d="M72.334 291H71.1328V284.777H71.0918L68.543 290.936H67.5703L65.0156 284.777H64.9746V291H63.7793V282.545H65.2969L68.0332 289.219H68.0801L70.8105 282.545H72.334V291ZM77.5488 282.404C79.9805 282.404 81.5098 284.086 81.5098 286.775C81.5098 289.465 79.9805 291.141 77.5488 291.141C75.1113 291.141 73.5879 289.465 73.5879 286.775C73.5879 284.086 75.1113 282.404 77.5488 282.404ZM77.5488 283.559C75.9434 283.559 74.9297 284.801 74.9297 286.775C74.9297 288.744 75.9434 289.986 77.5488 289.986C79.1543 289.986 80.1621 288.744 80.1621 286.775C80.1621 284.801 79.1543 283.559 77.5488 283.559ZM84.041 291H82.7637V282.545H83.9531L88.3359 288.779H88.3828V282.545H89.6602V291H88.4766L84.0938 284.771H84.041V291Z" fill="#606977"/>
<path d="M113.189 291H111.877V283.676H109.287V282.545H115.773V283.676H113.189V291ZM118.158 282.545V287.918C118.158 289.125 118.92 289.975 120.268 289.975C121.615 289.975 122.383 289.125 122.383 287.918V282.545H123.689V288.029C123.689 289.852 122.389 291.141 120.268 291.141C118.146 291.141 116.846 289.852 116.846 288.029V282.545H118.158ZM130.615 289.863V291H125.248V282.545H130.615V283.676H126.561V286.148H130.398V287.238H126.561V289.863H130.615Z" fill="#606977"/>
<path d="M155.602 284.625L153.779 291H152.537L150.258 282.545H151.623L153.188 289.166H153.234L155.021 282.545H156.24L158.033 289.166H158.08L159.645 282.545H161.01L158.725 291H157.488L155.66 284.625H155.602ZM167.42 289.863V291H162.053V282.545H167.42V283.676H163.365V286.148H167.203V287.238H163.365V289.863H167.42ZM168.768 282.545H171.75C174.264 282.545 175.752 284.092 175.752 286.758C175.752 289.43 174.27 291 171.75 291H168.768V282.545ZM170.08 283.676V289.863H171.627C173.42 289.863 174.41 288.768 174.41 286.77C174.41 284.777 173.414 283.676 171.627 283.676H170.08Z" fill="#606977"/>
<path d="M199.189 291H197.877V283.676H195.287V282.545H201.773V283.676H199.189V291ZM204.158 282.545V287.918C204.158 289.125 204.92 289.975 206.268 289.975C207.615 289.975 208.383 289.125 208.383 287.918V282.545H209.689V288.029C209.689 289.852 208.389 291.141 206.268 291.141C204.146 291.141 202.846 289.852 202.846 288.029V282.545H204.158ZM216.615 289.863V291H211.248V282.545H216.615V283.676H212.561V286.148H216.398V287.238H212.561V289.863H216.615Z" fill="#606977"/>
<path d="M238.092 291H236.779V282.545H242.059V283.676H238.092V286.354H241.725V287.461H238.092V291ZM244.514 283.646V286.688H246.354C247.367 286.688 247.947 286.131 247.947 285.164C247.947 284.221 247.332 283.646 246.318 283.646H244.514ZM244.514 287.748V291H243.201V282.545H246.477C248.217 282.545 249.301 283.553 249.301 285.129C249.301 286.271 248.691 287.197 247.66 287.543L249.553 291H248.041L246.318 287.748H244.514ZM251.885 291H250.572V282.545H251.885V291Z" fill="#606977"/>
<path d="M271.404 288.645H272.699C272.793 289.482 273.607 290.033 274.721 290.033C275.787 290.033 276.555 289.482 276.555 288.727C276.555 288.07 276.092 287.678 274.996 287.408L273.9 287.145C272.348 286.77 271.627 286.043 271.627 284.865C271.627 283.406 272.898 282.404 274.703 282.404C276.49 282.404 277.715 283.406 277.756 284.865H276.479C276.402 284.021 275.705 283.512 274.686 283.512C273.666 283.512 272.969 284.027 272.969 284.777C272.969 285.375 273.414 285.727 274.504 285.996L275.436 286.225C277.17 286.635 277.891 287.332 277.891 288.568C277.891 290.15 276.631 291.141 274.627 291.141C272.752 291.141 271.486 290.174 271.404 288.645ZM284.506 291L283.732 288.715H280.51L279.736 291H278.371L281.424 282.545H282.842L285.895 291H284.506ZM282.104 283.951L280.844 287.66H283.398L282.139 283.951H282.104ZM289.076 291H287.764V283.676H285.174V282.545H291.66V283.676H289.076V291Z" fill="#606977"/>
<line x1="276" y1="14.25" x2="-2.26773e-08" y2="14.25" stroke="#4E5471" stroke-width="0.5"/>
<line x1="276" y1="64.25" x2="-2.26773e-08" y2="64.25" stroke="#1CBF67" stroke-width="0.5" stroke-dasharray="4 4"/>
<line x1="276" y1="114.25" x2="-2.26773e-08" y2="114.25" stroke="#4E5471" stroke-width="0.5"/>
<line x1="276" y1="164.25" x2="-2.26773e-08" y2="164.25" stroke="#4E5471" stroke-width="0.5"/>
<line x1="276" y1="214.25" x2="-2.26773e-08" y2="214.25" stroke="#4E5471" stroke-width="0.5"/>
<line x1="276" y1="264.25" x2="-2.26773e-08" y2="264.25" stroke="#4E5471" stroke-width="0.5"/>
<line x1="130.75" y1="200.74" x2="130.75" y2="64" stroke="#1CBF67" stroke-width="0.5"/>
<rect x="127" y="114.534" width="7" height="68.3699" rx="2" fill="#1CBF67"/>
<line x1="149.75" y1="200.74" x2="149.75" y2="96.6987" stroke="#1CBF67" stroke-width="0.5"/>
<rect x="146" y="135.149" width="7" height="52.0205" rx="2" fill="#1CBF67"/>
<line x1="168.75" y1="221.973" x2="168.75" y2="97.1233" stroke="#1CBF67" stroke-width="0.5"/>
<rect x="165" y="162.096" width="7" height="43.1027" rx="2" fill="#1CBF67"/>
<line x1="92.75" y1="227.493" x2="92.75" y2="130.884" stroke="#1CBF67" stroke-width="0.5"/>
<rect x="89" y="150.206" width="7" height="63.911" rx="2" fill="#1CBF67"/>
<line x1="73.75" y1="236.411" x2="73.75" y2="111.561" stroke="#1CBF67" stroke-width="0.5"/>
<rect x="70" y="142.477" width="7" height="51.1288" rx="2" fill="#1CBF67"/>
<line x1="16.75" y1="231.952" x2="16.75" y2="108.589" stroke="#1CBF67" stroke-width="0.5"/>
<rect x="13" y="150.205" width="7" height="63.911" rx="2" fill="#1CBF67"/>
<line x1="35.75" y1="199.253" x2="35.75" y2="96.6986" stroke="#1CBF67" stroke-width="0.5"/>
<rect x="32" y="114.534" width="7" height="41.6164" rx="2" fill="#1CBF67"/>
<line x1="206.75" y1="248.726" x2="206.75" y2="114.959" stroke="#1CBF67" stroke-width="0.5"/>
<rect x="203" y="130.884" width="7" height="52.0205" rx="2" fill="#1CBF67"/>
<line x1="263.75" y1="221.548" x2="263.75" y2="114.534" stroke="#1CBF67" stroke-width="0.5"/>
<rect x="260" y="125.963" width="7" height="36.3639" rx="2" fill="#1CBF67"/>
<line x1="225.75" y1="250" x2="225.75" y2="130.247" stroke="#FF3030" stroke-width="0.5"/>
<rect x="222" y="148.719" width="7" height="34.1849" rx="2" fill="#FF3030"/>
<line x1="244.75" y1="200.74" x2="244.75" y2="111.562" stroke="#FF3030" stroke-width="0.5"/>
<rect x="241" y="122.224" width="7" height="33.9264" rx="2" fill="#FF3030"/>
<line x1="187.75" y1="236.411" x2="187.75" y2="111.561" stroke="#FF3030" stroke-width="0.5"/>
<rect x="184" y="126.424" width="7" height="29.726" rx="2" fill="#FF3030"/>
<path d="M54.5 210.4L54.5 111.561" stroke="#FF3030" stroke-width="0.5"/>
<rect x="51" y="126.425" width="7" height="37.1575" rx="2" fill="#FF3030"/>
<path d="M111.5 111.562L111.5 210.401" stroke="#FF3030" stroke-width="0.5"/>
<rect width="7" height="37.1575" rx="2" transform="matrix(1 0 0 -1 108 195.538)" fill="#FF3030"/>
</svg>
